# xmcd
#
# Track frame offsets: 
#        150
#        25130
#        44563
#        67645
#        80972
#        102114
#        121956
#        138934
#
# Disc length: 2129 seconds
#
# Revision: 1
# Processed by: cddbd v1.5.2PL0 Copyright (c) Steve Scherf et al.
# Submitted via: ExactAudioCopy v0.99pb5
#
DISCID=64084f08
DTITLE=Ruudolf - Born In The U.S.A.
DYEAR=2008
DGENRE=Hip-Hop
TTITLE0=Hot Chocolate
TTITLE1=Mr. Universum (feat. Karri Koira)
TTITLE2=Tiikerinsilmä (feat. Särre)
TTITLE3=Meksikolaisen Yö
TTITLE4=Van Damme (feat. Karri Koira)
TTITLE5=Äijilleki Sanon (feat. Karri Koira)
TTITLE6=Hunk
TTITLE7=Born In The U.S.A.
EXTD=
EXTT0=
EXTT1=
EXTT2=
EXTT3=
EXTT4=
EXTT5=
EXTT6=
EXTT7=
PLAYORDER=
